
<svg xmlns="http://www.w3.org/2000/svg" style="display:none"> 
  <defs>
    <symbol id="logo" viewBox="0 0 48 43" fill="none">
      <path d="M23.9995 19C16.5586 19 6.08391 30.5031 6.08391 37.7687C6.00141 41.0406 8.50828 43 12.7308 43C17.3058 43 20.3339 40.6469 23.9995 40.6469C27.7027 40.6469 30.7402 43 35.2683 43C39.4027 43 41.9939 41.0425 41.9939 37.7734C41.9152 30.5125 31.4433 19 23.9995 19ZM10.1995 17.8187C9.22735 14.5731 6.21516 12.4637 3.48516 13.12C0.755158 13.7762 -0.666467 16.9375 0.306096 20.1812C1.27828 23.4344 4.29047 25.5437 7.02047 24.8875C9.75047 24.2312 11.1652 21.0625 10.1995 17.8187ZM18.1402 15.8687C21.0342 15.107 22.4873 11.2656 21.3745 7.11531C20.2617 2.965 17.0152 0.449685 14.1098 1.1275C11.2158 1.88922 9.76266 5.73062 10.8755 9.88093C11.9902 13.9469 15.2339 16.6375 18.1402 15.8687ZM44.5214 13.1219C41.7914 12.55 38.7792 14.575 37.807 17.8206C36.8349 21.0672 38.2523 24.2303 40.9823 24.8866C43.7123 25.4584 46.7123 23.4334 47.6967 20.1878C48.6652 16.9375 47.1652 13.7781 44.5214 13.1219ZM29.8589 15.8687C32.6808 16.6305 36.0108 13.9469 37.1236 9.88093C38.2364 5.815 36.7838 1.88875 33.8892 1.1275C31.0673 0.365779 27.7373 3.04937 26.6245 7.11531C25.5089 11.1812 26.962 15.1094 29.8589 15.8687Z" fill="currentColor"/>
    </symbol>
    <symbol id="checkbox" viewBox="0 0 17 14" fill="none">
      <path d="M1 8.5L4.5 12.5L16 1.5" stroke="currentColor" stroke-width="2" stroke-linecap="round"/>
    </symbol>
  </defs>
</svg>